<svg id="Group_13728" data-name="Group 13728" xmlns="http://www.w3.org/2000/svg" xmlns:xlink="http://www.w3.org/1999/xlink" width="1040.965" height="793.877" viewBox="0 0 1040.965 793.877">
  <defs>
    <clipPath id="clip-path">
      <rect id="Rectangle_1200" data-name="Rectangle 1200" width="1040.965" height="793.877" fill="none"/>
    </clipPath>
  </defs>
  <g id="Group_13727" data-name="Group 13727" clip-path="url(#clip-path)">
    <path id="Path_32517" data-name="Path 32517" d="M1029.458,289.345c-16.378-68.444-54.05-134.688-102.341-185.659C827.758-1.183,673.263-13.221,538.875,9.911c-5.85,1.006-11.692,2.176-17.525,3.428-51.314,8.147-100.133,24.4-147.858,47.857-69.634,34.214-126.3,88.746-170.53,151.667-24.5,34.851-44.15,76.626-53.168,118.23-5.191,23.947-8.98,49.4-8.707,74.235-.625.287-1.252.545-1.874.839-26.546,12.425-51.646,30.566-72.954,50.426-63.778,59.438-89.1,162.694-41.842,239.932,18.845,30.8,45.338,58.423,78.065,74.455,47.335,23.188,94.426,28.091,146.1,17.742,44.414-8.895,78.423-34.085,111.538-61.455,20.323,8.721,40.83,16.968,62.177,22.886,34.188,9.484,70.095,14.147,105.333,17.173,59.068,5.07,120.811-2.566,178.052-17.024,57.306-14.475,114.614-38.525,164.665-70.021,29.326-18.452,59.1-39.839,81.954-66.106,31.7-36.426,51.174-70.892,68.584-115.55,25.563-65.567,24.771-141.615,8.578-209.281" transform="translate(0 0.001)" fill="rgba(255,255,255,0.15)"/>
  </g>
</svg>
