<svg id="noun-grain-4060474" xmlns="http://www.w3.org/2000/svg" width="300" height="299.187" viewBox="0 0 300 299.187">
  <path id="Path_32508" data-name="Path 32508" d="M485.686,122.314a7.859,7.859,0,0,0-11.382,0L448.288,148.33a85.886,85.886,0,0,0-116.26,4.878,7.859,7.859,0,0,0,0,11.382A86.147,86.147,0,0,0,393,189.794a71.614,71.614,0,0,0,13.821-1.626l-17.073,17.073a88.31,88.31,0,0,0-55.285-19.512c-21.951,0-44.715,8.13-60.975,25.2a7.859,7.859,0,0,0,0,11.382c20.325,20.325,48.78,28.455,75.61,24.39l-17.886,17.886a85.886,85.886,0,0,0-116.26,4.878,7.859,7.859,0,0,0,0,11.382c20.325,20.325,48.78,28.455,75.61,24.39L275.93,319.875c-48.78,1.626-87.8,42.276-87.8,91.057,0,4.878,3.252,8.13,8.13,8.13a90.792,90.792,0,0,0,91.057-87.8l14.634-14.634c-4.065,26.829,3.252,55.284,24.39,75.61a7.859,7.859,0,0,0,11.382,0,85.886,85.886,0,0,0,4.878-116.26l17.886-17.886c-4.065,26.829,3.252,55.284,24.39,75.61a7.859,7.859,0,0,0,11.382,0c31.707-31.707,33.333-82.927,5.691-116.256l17.073-17.073a90.533,90.533,0,0,0-1.626,13.821,86.147,86.147,0,0,0,25.2,60.976,7.859,7.859,0,0,0,11.382,0c31.707-31.707,33.333-82.927,5.691-116.256l26.016-26.016c3.252-2.439,3.252-7.317,0-10.569Zm-37.4,135.768c-9.756-12.2-14.634-27.642-14.634-43.089,0-16.26,4.878-30.894,14.634-43.089,9.756,12.2,14.634,27.642,14.634,43.089C463.735,231.252,458.044,245.887,448.288,258.082ZM349.909,159.7c25.2-19.512,60.976-19.512,86.992,0-12.2,9.756-27.642,14.634-43.089,14.634Q368.2,174.337,349.909,159.7ZM291.372,218.24c25.2-19.512,60.976-19.512,86.992,0C352.348,237.752,316.575,237.752,291.372,218.24Zm-59.349,58.537c12.195-9.756,27.642-14.634,43.089-14.634,16.26,0,30.894,4.878,43.09,14.634C293.811,296.288,257.226,296.288,232.023,276.776ZM203.567,404.423c4.065-34.959,31.707-62.6,65.854-65.854C266.169,372.716,238.527,400.358,203.567,404.423Zm127.647-28.455c-19.512-25.2-19.512-60.976,0-86.992,9.756,12.2,14.634,27.642,14.634,43.09C345.849,348.326,340.97,363.773,331.214,375.968Zm58.537-59.35c-19.512-25.2-19.512-60.976,0-86.992C410.076,255.643,410.076,291.415,389.751,316.618Z" transform="translate(-188.125 -119.875)" fill="rgba(255,255,255,0.15)"/>
</svg>
