<svg xmlns="http://www.w3.org/2000/svg" width="300" height="299.187" viewBox="0 0 300 299.187">
  <g id="noun-grain-4060474" transform="translate(-188.125 -119.875)">
    <path id="Path_32508" data-name="Path 32508" d="M190.564,416.623a7.859,7.859,0,0,0,11.382,0l26.016-26.016a85.886,85.886,0,0,0,116.26-4.878,7.859,7.859,0,0,0,0-11.382,86.147,86.147,0,0,0-60.976-25.2,71.614,71.614,0,0,0-13.821,1.626L286.5,333.7a88.309,88.309,0,0,0,55.285,19.512c21.951,0,44.715-8.13,60.976-25.2a7.859,7.859,0,0,0,0-11.382c-20.325-20.325-48.781-28.455-75.61-24.39l17.886-17.886a85.886,85.886,0,0,0,116.26-4.878,7.859,7.859,0,0,0,0-11.382c-20.325-20.325-48.78-28.455-75.61-24.39l14.634-14.634c48.78-1.626,87.8-42.276,87.8-91.057,0-4.878-3.252-8.13-8.13-8.13a90.792,90.792,0,0,0-91.057,87.8L374.3,222.314c4.065-26.829-3.252-55.285-24.39-75.61a7.859,7.859,0,0,0-11.382,0,85.886,85.886,0,0,0-4.878,116.26l-17.886,17.886c4.065-26.829-3.252-55.285-24.39-75.61a7.859,7.859,0,0,0-11.382,0c-31.707,31.707-33.333,82.927-5.691,116.256L257.231,338.57a90.533,90.533,0,0,0,1.626-13.821,86.147,86.147,0,0,0-25.2-60.976,7.859,7.859,0,0,0-11.382,0c-31.707,31.707-33.333,82.927-5.691,116.256l-26.016,26.016c-3.252,2.439-3.252,7.317,0,10.569Zm37.4-135.768c9.756,12.2,14.634,27.642,14.634,43.089,0,16.26-4.878,30.894-14.634,43.089-9.756-12.2-14.634-27.642-14.634-43.089C212.515,307.685,218.206,293.05,227.962,280.855Zm98.379,98.379c-25.2,19.512-60.976,19.512-86.992,0,12.2-9.756,27.642-14.634,43.089-14.634Q308.048,364.6,326.341,379.234ZM384.878,320.7c-25.2,19.512-60.976,19.512-86.992,0C323.9,301.185,359.674,301.185,384.878,320.7Zm59.349-58.537c-12.195,9.756-27.642,14.634-43.089,14.634-16.26,0-30.894-4.878-43.09-14.634C382.439,242.649,419.024,242.649,444.227,262.161Zm28.455-127.647c-4.065,34.959-31.707,62.6-65.854,65.854C410.081,166.221,437.723,138.579,472.682,134.514ZM345.035,162.969c19.512,25.2,19.512,60.976,0,86.992-9.756-12.2-14.634-27.642-14.634-43.09C330.4,190.611,335.279,175.164,345.035,162.969ZM286.5,222.319c19.512,25.2,19.512,60.976,0,86.992C266.174,283.294,266.174,247.522,286.5,222.319Z" transform="translate(0)" fill="rgba(48,119,60,0.05)"/>
  </g>
</svg>
