<svg xmlns="http://www.w3.org/2000/svg" width="96" height="65.842" viewBox="0 0 96 65.842">
  <path id="Path_32519" data-name="Path 32519" d="M54.119-25.744c0,11.255,5.517,23.393,22.731,23.393,13.462,0,22.51-8.828,22.51-20.083,0-10.372-5.738-18.759-20.745-19.862a3.177,3.177,0,0,1-2.428-4.193c2.207-5.738,6.621-10.814,11.7-15.448a3.99,3.99,0,0,0,.441-4.634A3.5,3.5,0,0,0,83.912-67.9C67.139-60.834,54.119-46.047,54.119-25.744Zm-50.759,0c0,11.255,5.517,23.393,22.731,23.393,13.462,0,22.51-8.828,22.51-20.083,0-10.372-5.738-18.759-20.524-19.862a3.173,3.173,0,0,1-2.648-4.193c2.428-5.738,6.841-10.814,11.7-15.448a3.421,3.421,0,0,0,.441-4.634A3.431,3.431,0,0,0,33.153-67.9C16.381-60.834,3.36-46.047,3.36-25.744Z" transform="translate(-3.36 68.193)" fill="#242121" opacity="0.2"/>
</svg>
